<svg width="60" height="60" viewBox="0 0 60 60" fill="none" xmlns="http://www.w3.org/2000/svg">
<path d="M10 52L7.61915 34.5405C7.32067 32.3516 8.85314 30.3352 11.042 30.0367C11.2211 30.0123 11.4017 30 11.5825 30H50.4175C52.6267 30 54.4175 31.7909 54.4175 34C54.4175 34.1808 54.4053 34.3613 54.3808 34.5405L52 52M26 39H36M31 39V46M22.6875 42H24.6875M39.2412 42H37.2412M37.7083 46L35.9288 45M38.4581 37.3027L36.6786 38.3027M24.2205 46L26 45M23.4706 37.3027L25.2501 38.3027M14 30V20.6069C14 16.4235 15.8708 12.4593 19.1001 9.79992L26.55 3.66466C29.1348 1.53601 32.8652 1.53601 35.45 3.66466L42.8999 9.79992C46.1292 12.4593 48 16.4235 48 20.6069V30M19.9764 29.8112C19.0301 28 18.4877 27.5729 18 25.5L17.8752 24.9695C17.2219 22.1931 18.943 19.4128 21.7194 18.7595C22.4687 18.5832 23.2479 18.5766 24 18.7402C29.2717 19.887 32.7283 19.887 38 18.7402C40.787 18.134 43.5378 19.9018 44.1441 22.6889C44.3077 23.441 44.3011 24.2202 44.1248 24.9695L44 25.5C43.533 27.4845 43.0029 28 42.2049 29.6276M20.0127 19.5561C20.1903 23.4504 23.2241 27.8607 26.2501 29.9231M35.83 29.868C38.7849 27.8189 41.7752 23.4767 41.9821 19.6602M7 52H54C54.5523 52 55 52.4477 55 53V55C55 56.6569 53.6569 58 52 58H9C7.34315 58 6 56.6569 6 55V53C6 52.4477 6.44772 52 7 52ZM37 41C37 44.3137 34.3137 47 31 47C27.6863 47 25 44.3137 25 41C25 37.6863 27.6863 35 31 35C34.3137 35 37 37.6863 37 41Z" stroke="#25282D" stroke-width="2" stroke-linecap="round" stroke-linejoin="round"/>
</svg>
